<?xml version="1.0" encoding="UTF-8"?>
<svg width="48px" height="48px" viewBox="0 0 24 24" version="1.1" xmlns="http://www.w3.org/2000/svg" xmlns:xlink="http://www.w3.org/1999/xlink">
    <!-- Generator: Sketch 63.1 (92452) - https://sketch.com -->
    <title>Icon/32px/Gift/Grey</title>
    <desc>Created with Sketch.</desc>
    <g id="Symbol" stroke="none" stroke-width="1" fill="none" fill-rule="evenodd" fill-opacity="1">
        <g id="Component/Navigation/Under" transform="translate(-94.000000, -14.000000)" fill="#000000">
            <g id="Icon/32px/Calender/Grey" transform="translate(90.000000, 10.000000)">
                <g transform="translate(4.000000, 4.000000)" id="Shape">
                    <path d="M23,22 C22.9933004,22.8189263 21.894533,22.9923375 21.4523567,23 C21.4523567,23 3.39012326,22.9995211 2.60626521,23 C2.25118421,23 1,22.5162588 1,22 C1,21.5301949 1,12.3810641 1,9 L23,9 C23,12.2469709 23.0133993,20.8520665 23,22 Z M18.5265508,11.238273 C18.9100675,11.6299561 18.5448703,11.9990971 18.0396715,12.479623 L12,18.640212 C11.7506307,18.8780107 11.3441753,19.0092168 11.0159898,19.011681 C10.6826361,19.0129131 10.4004733,18.8829392 10.1459357,18.640212 L6.44467583,15.089382 C6.44467583,15.089382 5.54835372,14.3896996 6.00086098,14.034296 C6.45336823,13.6788924 6.71829896,14.0519531 7.22349784,14.532479 L10.7170597,18.039356 C10.7170597,18.039356 11.1648704,18.1418868 11.2722535,18.039356 C13.2699493,16.1319281 17.3083786,11.878685 17.3083786,11.878685 C17.8135774,11.396927 18.2363923,10.9999998 18.5265508,11.238273 Z M5,4 L5,5 L6,5 L6,4 L18,4 L18,4 L18,5 L19,5 L19,4 L21.2523863,4.00065285 L21.2523863,4.00065285 C22.8655682,4.00125548 22.995368,5.05488269 23.000522,5.34894067 L23,8 L23,8 L1,8 L1,5.47021381 L1,5.47021381 C1,4.44524237 1.73533238,4.00652848 2.68003015,4.0013057 L2.81646179,4.00101389 C3.16045014,4.00063252 4.07855512,4.00053764 5,4 Z M20.7871126,3 C20.6539433,3 20.0780372,3.0005599 19,3 L19,0 L18,0 L18,3 C15.0132027,3 8.95509028,3 6,3 L6.0221458,0 L5,0 L5,3 C3.93464556,3 3.24681277,2.9994401 3.17071603,3 C1.63609833,3.00783861 -0.00632309045,2.9103621 3.55271368e-15,5.06653842 C3.55271368e-15,5.20483381 3.55271368e-15,20 3.55271368e-15,22 C3.55271368e-15,24 2.25755508,23.99664 3.10096068,23.99664 C3.94436627,23.99664 20.9329647,23.99664 20.9393061,23.99664 C20.9456475,23.99664 19.7280995,23.99664 20.9456475,23.99664 C22.1631954,23.99664 23.9704931,24.0721913 23.9895173,22 C24.0085415,19.9278087 23.9958587,5.66395211 23.9958587,5.08557503 C24,3.16339776 23.0826338,3 20.7871126,3 Z" fill-rule="nonzero"></path>
                </g>
            </g>
        </g>
    </g>
</svg>
