<?xml version="1.0" encoding="UTF-8"?>
<svg width="500px" height="500px" viewBox="0 0 40 40" version="1.1" xmlns="http://www.w3.org/2000/svg" xmlns:xlink="http://www.w3.org/1999/xlink">
    <title>Sign in with Apple (Logo-only)</title>
    <g id="Creatrip" stroke="none" stroke-width="1" fill="none" fill-rule="evenodd">
        <g id="2-Log-in/Main" transform="translate(-191.000000, -556.000000)">
            <g id="Sign-in-with-Apple-(Logo-only)" transform="translate(191.000000, 556.000000)">
                <g id="Button-Background" fill="#000000">
                    <path d="M20,0 C31.045695,-2.02906125e-15 40,8.954305 40,20 C40,31.045695 31.045695,40 20,40 C8.954305,40 1.3527075e-15,31.045695 0,20 C-1.3527075e-15,8.954305 8.954305,2.02906125e-15 20,0 Z" id="Appearance"></path>
                </g>
                <path d="M20.2226562,12.6118881 C21.0546875,12.6118881 22.0976562,12.0321043 22.71875,11.2590591 C23.28125,10.558487 23.6914062,9.58010172 23.6914062,8.60171647 C23.6914062,8.46884933 23.6796875,8.3359822 23.65625,8.22727273 C22.7304687,8.26350922 21.6171875,8.86745073 20.9492187,9.67673236 C20.421875,10.2927527 19.9414062,11.2590591 19.9414062,12.2495232 C19.9414062,12.3944692 19.9648438,12.5394151 19.9765625,12.5877305 C20.0351562,12.5998093 20.1289062,12.6118881 20.2226562,12.6118881 Z M17.2929688,27.2272727 C18.4296875,27.2272727 18.9335938,26.4421488 20.3515625,26.4421488 C21.7929688,26.4421488 22.109375,27.2031151 23.375,27.2031151 C24.6171875,27.2031151 25.4492188,26.0193897 26.234375,24.859822 C27.1132812,23.5311507 27.4765625,22.226637 27.5,22.1662428 C27.4179688,22.1420852 25.0390625,21.1395423 25.0390625,18.3251748 C25.0390625,15.8852511 26.9140625,14.7860776 27.0195312,14.7015257 C25.7773438,12.8655435 23.890625,12.8172282 23.375,12.8172282 C21.9804688,12.8172282 20.84375,13.686904 20.1289062,13.686904 C19.3554688,13.686904 18.3359375,12.8655435 17.1289062,12.8655435 C14.8320312,12.8655435 12.5,14.822314 12.5,18.5184361 C12.5,20.8134139 13.3671875,23.2412587 14.4335938,24.8115067 C15.3476562,26.140178 16.1445312,27.2272727 17.2929688,27.2272727 Z" id="" fill="#FFFFFF" fill-rule="nonzero"></path>
            </g>
        </g>
    </g>
</svg>
