<?xml version="1.0" encoding="UTF-8"?>
<svg width="500px" height="500px" viewBox="0 0 38 38" version="1.1" xmlns="http://www.w3.org/2000/svg" xmlns:xlink="http://www.w3.org/1999/xlink">
    <title>Icon/40px/Line-circle/Grey</title>
    <g id="Creatrip" stroke="none" stroke-width="1" fill="none" fill-rule="evenodd" stroke-linecap="round">
        <g id="2-Log-in/Main" transform="translate(-140.000000, -496.000000)">
            <g id="Group" transform="translate(35.000000, 495.000000)">
                <g id="Group-2" transform="translate(104.000000, 0.000000)">
                    <g id="Icon/40px/Line-circle/Grey">
                        <g id="Icon/32px/Line-circle/Grey" transform="translate(1.250000, 1.250000)">
                            <circle id="Oval" stroke-opacity="0.2" stroke="#000000" fill-rule="nonzero" cx="18.75" cy="18.75" r="18.25"></circle>
                            <path d="M30.625,18.0654251 C30.625,12.9288699 25.438283,8.75 19.0623892,8.75 C12.687382,8.75 7.5,12.9288699 7.5,18.0654251 C7.5,22.670324 11.6134656,26.5268114 17.1699024,27.2560781 C17.5464936,27.3366187 18.0589589,27.5025412 18.1886269,27.822063 C18.3052171,28.1123173 18.264876,28.5669537 18.2258648,28.8600688 C18.2258648,28.8600688 18.0902122,29.6700962 18.0609538,29.8426204 C18.0106382,30.1328747 17.8286598,30.9776709 19.0623892,30.4614188 C20.2965618,29.9451666 25.7213359,26.5688422 28.1471235,23.7967924 L28.1466802,23.7967924 C29.8223888,21.9725254 30.625,20.1211914 30.625,18.0654251 Z" id="Combined-Shape-path" fill-opacity="0.2" fill="#000000" fill-rule="nonzero"></path>
                            <path d="M16.6518798,15.625 L15.8483398,15.625 C15.7251406,15.625 15.625,15.7283757 15.625,15.8553801 L15.625,21.0196199 C15.625,21.1468515 15.7251406,21.25 15.8483398,21.25 L16.6518798,21.25 C16.7750791,21.25 16.875,21.1468515 16.875,21.0196199 L16.875,15.8553801 C16.875,15.7283757 16.7750791,15.625 16.6518798,15.625" id="Fill-2" fill="#FFFFFF" fill-rule="nonzero"></path>
                            <path d="M22.2651193,15.625 L21.4192251,15.625 C21.2895321,15.625 21.1843444,15.7283757 21.1843444,15.8553801 L21.1843444,18.9234792 L18.7763547,15.7274669 C18.7708064,15.7192877 18.7645644,15.7115629 18.7580914,15.7040654 L18.7564731,15.7027022 C18.7518494,15.6974766 18.7472258,15.6929326 18.742371,15.6883886 C18.7409839,15.6870254 18.7395968,15.6858894 18.7379786,15.6845262 C18.7340484,15.680891 18.7298872,15.6774831 18.7254947,15.6743023 C18.7236453,15.6724846 18.7215646,15.6711214 18.719484,15.6695311 C18.7153227,15.6668047 18.7113926,15.6638511 18.7072314,15.6613519 C18.7049196,15.6597615 18.7026077,15.6583983 18.7000647,15.6572623 C18.6959034,15.6547631 18.6917422,15.6522639 18.6875809,15.6502191 C18.6850379,15.6490831 18.6827261,15.6477199 18.6801831,15.6468111 C18.6757906,15.6447663 18.6713982,15.6427216 18.6667746,15.6411311 C18.6640004,15.6402224 18.6616886,15.6393136 18.6591456,15.6384047 C18.6545219,15.6368144 18.6498982,15.6352239 18.6450434,15.634088 C18.6425004,15.6331792 18.6397262,15.6327247 18.6369521,15.631816 C18.6323284,15.6309072 18.627936,15.6297712 18.6235436,15.6288624 C18.620307,15.628408 18.6168393,15.6279536 18.6136027,15.6277264 C18.6094414,15.6268176 18.6052802,15.6265904 18.6011189,15.626136 C18.5971888,15.6256816 18.5932587,15.6256816 18.5890974,15.6254544 C18.5860921,15.6254544 18.5837803,15.625 18.5807749,15.625 L17.7351119,15.625 C17.6054189,15.625 17.5,15.7283757 17.5,15.8553801 L17.5,21.0196199 C17.5,21.1468515 17.6054189,21.25 17.7351119,21.25 L18.5807749,21.25 C18.7106991,21.25 18.8158868,21.1468515 18.8158868,21.0196199 L18.8158868,17.9524295 L21.2268818,21.1525315 C21.2435269,21.1757058 21.2641021,21.1945634 21.2865267,21.2095585 C21.2872202,21.2100129 21.288145,21.2106945 21.2888386,21.2113761 C21.2936934,21.2143297 21.2985482,21.2172833 21.303403,21.2200097 C21.3057148,21.2213729 21.3077954,21.2222817 21.3101072,21.2234177 C21.313575,21.2254625 21.3175051,21.2272801 21.321204,21.2288704 C21.3251341,21.2304609 21.3286018,21.2320513 21.3327631,21.2336416 C21.3350749,21.2345504 21.3373867,21.2354593 21.3396986,21.2361408 C21.3452469,21.2381856 21.3503329,21.2397761 21.3556501,21.2413664 C21.356806,21.2413664 21.3579619,21.2418208 21.3591178,21.242048 C21.3783059,21.2470464 21.3984187,21.25 21.4192251,21.25 L22.2651193,21.25 C22.3950434,21.25 22.5,21.1468515 22.5,21.0196199 L22.5,15.8553801 C22.5,15.7283757 22.3950434,15.625 22.2651193,15.625" id="Fill-3" fill="#FFFFFF" fill-rule="nonzero"></path>
                            <path d="M14.7715804,19.9568339 L12.5319878,19.9568339 L12.5319878,15.8558251 C12.5319878,15.7283715 12.4294918,15.625 12.3033429,15.625 L11.4788701,15.625 C11.3524959,15.625 11.25,15.7283715 11.25,15.8558251 L11.25,21.0189476 L11.25,21.0194021 C11.25,21.0814249 11.274554,21.1375409 11.3139755,21.1788895 C11.3148766,21.1800254 11.3157776,21.1811614 11.3171292,21.1822974 C11.3182556,21.1834333 11.3193819,21.1843421 11.3205082,21.185478 C11.3617318,21.2254634 11.4171472,21.25 11.4786448,21.25 L14.7715804,21.25 C14.8979546,21.25 15,21.1464013 15,21.0189476 L15,20.1876591 C15,20.0602054 14.8979546,19.9568339 14.7715804,19.9568339" id="Fill-4" fill="#FFFFFF" fill-rule="nonzero"></path>
                            <path d="M26.6465804,16.9181661 C26.7729546,16.9181661 26.875,16.8150218 26.875,16.6873409 L26.875,15.8560524 C26.875,15.7285987 26.7729546,15.625 26.6465804,15.625 L23.3538701,15.625 L23.3534196,15.625 C23.2916967,15.625 23.2360561,15.6499909 23.1948324,15.6902036 C23.1939313,15.6911123 23.192805,15.6917939 23.1921292,15.6927026 C23.1907776,15.6940658 23.1896513,15.6954289 23.1885249,15.6967921 C23.1493287,15.7381407 23.125,15.7940294 23.125,15.8558251 L23.125,15.8560524 L23.125,21.0191749 L23.125,21.0194021 C23.125,21.0814249 23.149554,21.1375409 23.1889755,21.1788895 C23.1898766,21.1800254 23.1910029,21.1813886 23.1921292,21.1822974 C23.1930302,21.1834333 23.1943819,21.1845692 23.1955082,21.185478 C23.2365066,21.2252362 23.2921472,21.25 23.3534196,21.25 L26.6465804,21.25 C26.7729546,21.25 26.875,21.1464013 26.875,21.0191749 L26.875,20.1876591 C26.875,20.0604326 26.7729546,19.9568339 26.6465804,19.9568339 L24.407213,19.9568339 L24.407213,19.0839694 L26.6465804,19.0839694 C26.7729546,19.0839694 26.875,18.9805979 26.875,18.8531443 L26.875,18.0218557 C26.875,17.8944021 26.7729546,17.7908034 26.6465804,17.7908034 L24.407213,17.7908034 L24.407213,16.9181661 L26.6465804,16.9181661 Z" id="Fill-5" fill="#FFFFFF" fill-rule="nonzero"></path>
                        </g>
                    </g>
                </g>
            </g>
        </g>
    </g>
</svg>
